#!OML:ASF I:\Actors\actors\Patient Classification 2\Patient 1\Session 1\actor1.ASF
:FULLY-SPECIFIED
:DEGREES
513
root -0.454365 18.7401 5.14489 1.63652 -0.829852 -1.09709
lowerback 3.73652 0.746168 -1.58778
upperback 1.12042 0.944297 0.773174
thorax -0.983338 0.472461 1.64037
lowerneck -11.9735 -2.60764 -1.80478
upperneck 35.0008 -4.23209 2.3313
head 14.0095 -1.76431 0.6133
rclavicle 7.97934e-015 -8.94531e-015
rhumerus -36.4413 29.7908 -101.711
rradius 93.9374
rwrist 25.9284
rhand -12.3759 -60.3838
rfingers 7.12502
rthumb 13.6947 -89.9132
lclavicle 7.97934e-015 -8.94531e-015
lhumerus 13.1969 -46.7272 60.4126
lradius 74.1958
lwrist -4.62924
lhand 19.1135 -25.1953
lfingers 7.12502
lthumb 43.7084 -1.20454
rfemur 0 0 0
rtibia 0
rfoot 0 0
rtoes 0
lfemur -6.88388 -5.65664 -13.8355
ltibia 22.5394
lfoot -21.1835 14.6446
ltoes -55.2149
514
root -0.45811 18.7388 5.14559 1.54929 -0.831342 -1.11415
lowerback 3.92056 0.72047 -1.67304
upperback 1.10574 0.904785 0.828766
thorax -1.10184 0.454012 1.74486
lowerneck -11.7949 -2.62954 -1.95781
upperneck 34.8742 -4.27996 2.49596
head 13.9228 -1.78708 0.701203
rclavicle 6.89534e-015 7.28049e-015
rhumerus -36.7408 29.8096 -101.488
rradius 94.195
rwrist 26.216
rhand -16.0883 -60.0093
rfingers 7.12502
rthumb 10.115 -89.7462
lclavicle 6.89534e-015 7.28049e-015
lhumerus 12.9275 -46.984 60.0149
lradius 75.5007
lwrist -4.54193
lhand 19.179 -24.5992
lfingers 7.12502
lthumb 43.7696 -0.630861
rfemur 0 0 0
rtibia 0
rfoot 0 0
rtoes 0
lfemur -6.79164 -5.63205 -13.8074
ltibia 22.5453
lfoot -21.1681 14.608
ltoes -55.2292
515
root -0.46141 18.7378 5.14655 1.46248 -0.834493 -1.14294
lowerback 4.11529 0.697014 -1.77632
upperback 1.06171 0.867338 0.904525
thorax -1.25691 0.437421 1.88008
lowerneck -11.6298 -2.64451 -2.07348
upperneck 34.8118 -4.30408 2.58637
head 13.8644 -1.80374 0.756186
rclavicle -1.9348e-015 1.04579e-014
rhumerus -36.9647 29.8012 -101.162
rradius 94.2292
rwrist 26.6538
rhand -17.5166 -59.7804
rfingers 7.12502
rthumb 8.73684 -89.5796
lclavicle -1.9348e-015 1.04579e-014
lhumerus 12.4337 -47.2332 59.7765
lradius 76.8603
lwrist -4.48489
lhand 19.5785 -24.0687
lfingers 7.12502
lthumb 44.1422 -0.239079
rfemur 0 0 0
rtibia 0
rfoot 0 0
rtoes 0
lfemur -6.69285 -5.58154 -13.7659
ltibia 22.5495
lfoot -21.1755 14.5364
ltoes -55.1878
516
root -0.463642 18.7367 5.14896 1.3905 -0.858227 -1.21515
lowerback 4.23579 0.696603 -1.80353
upperback 1.02596 0.864719 0.972371
thorax -1.36227 0.437645 1.9637
lowerneck -11.4698 -2.6716 -2.10064
upperneck 34.7598 -4.34345 2.60157
head 13.8078 -1.82505 0.763097
rclavicle 1.54757e-015 1.08089e-015
rhumerus -36.9854 29.6785 -100.708
rradius 93.9842
rwrist 27.7335
rhand -16.7296 -59.7626
rfingers 7.12502
rthumb 9.49621 -89.5286
lclavicle 1.54757e-015 1.08089e-015
lhumerus 12.0511 -47.5946 59.396
lradius 78.3899
lwrist -4.35136
lhand 20.2499 -23.4332
lfingers 7.12502
lthumb 44.7679 0.157272
rfemur 0 0 0
rtibia 0
rfoot 0 0
rtoes 0
lfemur -6.58821 -5.52191 -13.6811
ltibia 22.5438
lfoot -21.1941 14.4853
ltoes -55.1803
517
root -0.465764 18.7354 5.15078 1.32299 -0.883962 -1.24136
lowerback 4.31277 0.716621 -1.84675
upperback 1.00962 0.888825 1.00784
thorax -1.42444 0.450666 2.02219
lowerneck -11.3446 -2.71195 -2.05802
upperneck 34.7503 -4.41185 2.58831
head 13.7764 -1.8526 0.741768
rclavicle -5.08299e-015 -6.88292e-015
rhumerus -36.7856 29.4354 -100.164
rradius 93.4861
rwrist 29.4618
rhand -14.2892 -59.664
rfingers 7.12502
rthumb 11.8502 -89.3087
lclavicle -5.08299e-015 -6.88292e-015
lhumerus 12.1606 -48.1926 58.5569
lradius 79.9037
lwrist -4.09254
lhand 20.7654 -22.6842
lfingers 7.12502
lthumb 45.2474 0.717177
rfemur 0 0 0
rtibia 0
rfoot 0 0
rtoes 0
lfemur -6.48863 -5.49675 -13.6523
ltibia 22.5359
lfoot -21.1958 14.4849
ltoes -55.2173
518
root -0.466142 18.7349 5.15369 1.30817 -0.940806 -1.1972
lowerback 4.2725 0.758813 -1.91995
upperback 1.0057 0.942472 1.00827
thorax -1.40974 0.47758 2.06121
lowerneck -11.305 -2.7609 -2.05522
upperneck 34.8387 -4.50343 2.62725
head 13.8115 -1.88636 0.744031
rclavicle 1.36897e-014 1.20016e-014
rhumerus -36.4327 29.1954 -99.5693
rradius 92.9133
rwrist 31.1785
rhand -13.938 -58.6699
rfingers 7.12502
rthumb 12.1889 -88.2947
lclavicle 1.36897e-014 1.20016e-014
lhumerus 12.3212 -48.6771 57.9581
lradius 80.7456
lwrist -4.44916
lhand 21.0087 -22.8301
lfingers 7.12502
lthumb 45.4736 0.480476
rfemur 0 0 0
rtibia 0
rfoot 0 0
rtoes 0
lfemur -6.44072 -5.50806 -13.7096
ltibia 22.5232
lfoot -21.2267 14.5262
ltoes -55.1898
519
root -0.464004 18.7352 5.15902 1.34855 -1.03413 -1.1519
lowerback 4.13676 0.809348 -1.9576
upperback 0.999114 1.0105 1.00957
thorax -1.34469 0.511027 2.08162
lowerneck -11.3415 -2.80518 -2.12146
upperneck 34.9826 -4.58416 2.70259
head 13.8916 -1.918 0.773765
rclavicle 6.45274e-015 1.39149e-015
rhumerus -35.9815 29.065 -98.9542
rradius 92.3896
rwrist 32.5167
rhand -15.4777 -57.2639
rfingers 7.12502
rthumb 10.704 -86.9712
lclavicle 6.45274e-015 1.39149e-015
lhumerus 12.3548 -48.9775 57.8072
lradius 80.956
lwrist -5.45718
lhand 21.0307 -23.777
lfingers 7.12502
lthumb 45.494 -0.474732
rfemur 0 0 0
rtibia 0
rfoot 0 0
rtoes 0
lfemur -6.43457 -5.54678 -13.7803
ltibia 22.4994
lfoot -21.3115 14.6112
ltoes -55.0896
520
root -0.462286 18.7347 5.16226 1.34956 -1.0929 -1.11814
lowerback 4.08394 0.83977 -1.99579
upperback 0.991282 1.05061 1.02719
thorax -1.32624 0.531067 2.1197
lowerneck -11.3433 -2.83697 -2.13314
upperneck 35.0666 -4.62936 2.69444
head 13.9318 -1.93917 0.766037
rclavicle 2.66806e-015 7.90169e-015
rhumerus -35.5005 29.0252 -98.3768
rradius 91.9511
rwrist 33.604
rhand -13.8848 -57.4589
rfingers 7.12502
rthumb 12.2402 -87.0807
lclavicle 2.66806e-015 7.90169e-015
lhumerus 12.6302 -49.4292 57.3566
lradius 81.2896
lwrist -6.23082
lhand 20.918 -24.3209
lfingers 7.12502
lthumb 45.3893 -0.976351
rfemur 0 0 0
rtibia 0
rfoot 0 0
rtoes 0
lfemur -6.40093 -5.5328 -13.8315
ltibia 22.4764
lfoot -21.3378 14.6487
ltoes -55.0357
521
root -0.461565 18.7333 5.1629 1.30243 -1.10106 -1.10218
lowerback 4.09725 0.850455 -2.01224
upperback 1.006 1.0642 1.04316
thorax -1.31987 0.537698 2.14457
lowerneck -11.2869 -2.86748 -2.11027
upperneck 35.0411 -4.66244 2.64353
head 13.9064 -1.9581 0.737338
rclavicle 1.59059e-014 -4.22417e-015
rhumerus -35.0288 29.0363 -97.8672
rradius 91.6342
rwrist 34.4195
rhand -16.9661 -56.0737
rfingers 7.12502
rthumb 9.26806 -85.85
lclavicle 1.59059e-014 -4.22417e-015
lhumerus 13.0679 -49.9392 56.6704
lradius 81.7746
lwrist -6.72096
lhand 20.8376 -24.3823
lfingers 7.12502
lthumb 45.3146 -1.00778
rfemur 0 0 0
rtibia 0
rfoot 0 0
rtoes 0
lfemur -6.34734 -5.42266 -13.8471
ltibia 22.47
lfoot -21.2894 14.5783
ltoes -55.0619
522
root -0.460852 18.7328 5.16349 1.26466 -1.08756 -1.10406
lowerback 4.10351 0.862793 -1.98251
upperback 1.03155 1.08201 1.05564
thorax -1.29777 0.546015 2.13987
lowerneck -11.2703 -2.91592 -2.15807
upperneck 34.9873 -4.721 2.648
head 13.882 -1.98974 0.738786
rclavicle -8.30858e-015 -3.97569e-015
rhumerus -34.6084 29.1028 -97.4204
rradius 91.4433
rwrist 34.8872
rhand -17.781 -55.684
rfingers 7.12502
rthumb 8.48172 -85.4937
lclavicle -8.30858e-015 -3.97569e-015
lhumerus 13.5398 -50.3944 56.0835
lradius 82.1654
lwrist -7.0985
lhand 21.058 -24.3066
lfingers 7.12502
lthumb 45.5194 -1.01461
rfemur 0 0 0
rtibia 0
rfoot 0 0
rtoes 0
lfemur -6.31532 -5.30581 -13.8401
ltibia 22.4781
lfoot -21.235 14.4834
ltoes -55.1296
523
root -0.459942 18.7329 5.16342 1.25238 -1.0556 -1.09766
lowerback 4.12442 0.858266 -1.97343
upperback 1.03923 1.07647 1.08517
thorax -1.30169 0.543215 2.16523
lowerneck -11.2856 -2.9494 -2.24227
upperneck 34.9492 -4.74529 2.64451
head 13.8715 -2.01181 0.748148
rclavicle 1.06226e-015 -1.78906e-015
rhumerus -34.3877 29.4481 -97.1433
rradius 91.3293
rwrist 34.7367
rhand -18.6526 -55.802
rfingers 7.12502
rthumb 7.64051 -85.644
lclavicle 1.06226e-015 -1.78906e-015
lhumerus 14.0232 -50.8229 55.546
lradius 82.499
lwrist -7.33597
lhand 21.4257 -24.2607
lfingers 7.12502
lthumb 45.8609 -1.10841
rfemur 0 0 0
rtibia 0
rfoot 0 0
rtoes 0
lfemur -6.31744 -5.27915 -13.848
ltibia 22.4916
lfoot -21.204 14.4514
ltoes -55.1899
524
root -0.458414 18.7326 5.16202 1.26321 -1.00203 -1.09315
lowerback 4.14824 0.821038 -1.96883
upperback 1.0374 1.02733 1.12889
thorax -1.31502 0.518864 2.20993
lowerneck -11.3298 -2.94118 -2.30065
upperneck 34.9446 -4.70762 2.6172
head 13.8788 -2.00622 0.752401
rclavicle -1.26601e-014 -7.85199e-015
rhumerus -34.3627 30.2033 -97.1231
rradius 91.2183
rwrist 33.6052
rhand -20.1321 -56.1236
rfingers 7.12502
rthumb 6.21233 -86.0125
lclavicle -1.26601e-014 -7.85199e-015
lhumerus 14.4017 -51.1593 55.1453
lradius 82.7539
lwrist -7.67444
lhand 21.6076 -24.3704
lfingers 7.12502
lthumb 46.0296 -1.28819
rfemur 0 0 0
rtibia 0
rfoot 0 0
rtoes 0
lfemur -6.35326 -5.36359 -13.8592
ltibia 22.5057
lfoot -21.2224 14.4716
ltoes -55.1828
525
root -0.456485 18.733 5.16056 1.2852 -0.94269 -1.09369
lowerback 4.15119 0.775299 -1.92918
upperback 1.03789 0.968486 1.15993
thorax -1.31292 0.489363 2.22272
lowerneck -11.4386 -2.92358 -2.36253
upperneck 35.033 -4.69198 2.68392
head 13.9467 -1.99663 0.791007
rclavicle 2.91965e-016 -4.96962e-016
rhumerus -33.8856 30.2285 -96.5156
rradius 91.3649
rwrist 35.2591
rhand -14.9363 -57.0847
rfingers 7.12502
rthumb 11.2262 -86.7644
lclavicle 2.91965e-016 -4.96962e-016
lhumerus 14.642 -51.4709 54.9033
lradius 82.9779
lwrist -8.04465
lhand 21.7345 -24.6296
lfingers 7.12502
lthumb 46.1473 -1.59661
rfemur 0 0 0
rtibia 0
rfoot 0 0
rtoes 0
lfemur -6.40356 -5.44479 -13.8627
ltibia 22.5185
lfoot -21.2425 14.4727
ltoes -55.1563
